<?xml version="1.0" encoding="UTF-8" standalone="no"?>
<!-- Created with Inkscape (http://www.inkscape.org/) -->

<svg
   xmlns:dc="http://purl.org/dc/elements/1.1/"
   xmlns:cc="http://creativecommons.org/ns#"
   xmlns:rdf="http://www.w3.org/1999/02/22-rdf-syntax-ns#"
   xmlns:svg="http://www.w3.org/2000/svg"
   xmlns="http://www.w3.org/2000/svg"
   xmlns:xlink="http://www.w3.org/1999/xlink"
   xmlns:sodipodi="http://sodipodi.sourceforge.net/DTD/sodipodi-0.dtd"
   xmlns:inkscape="http://www.inkscape.org/namespaces/inkscape"
   width="64"
   height="64"
   viewBox="0 0 64.000003 64.000002"
   id="svg4460"
   version="1.1"
   inkscape:version="0.91 r13725"
   sodipodi:docname="buttest2.svg">
  <defs
     id="defs4462">
    <linearGradient
       inkscape:collect="always"
       id="linearGradient5028">
      <stop
         style="stop-color:#939393;stop-opacity:1"
         offset="0"
         id="stop5030" />
      <stop
         id="stop5040"
         offset="0.13136131"
         style="stop-color:#c5c5c5;stop-opacity:1" />
      <stop
         style="stop-color:#c0c0c0;stop-opacity:1"
         offset="0.85384595"
         id="stop5042" />
      <stop
         style="stop-color:#ffffff;stop-opacity:1"
         offset="1"
         id="stop5032" />
    </linearGradient>
    <linearGradient
       inkscape:collect="always"
       xlink:href="#linearGradient5028"
       id="linearGradient5034"
       x1="30.357145"
       y1="64.321434"
       x2="30.607143"
       y2="0.21428518"
       gradientUnits="userSpaceOnUse" />
    <linearGradient
       inkscape:collect="always"
       xlink:href="#linearGradient5028"
       id="linearGradient5805"
       gradientUnits="userSpaceOnUse"
       x1="30.357145"
       y1="64.321434"
       x2="30.607143"
       y2="0.21428518" />
  </defs>
  <sodipodi:namedview
     id="base"
     pagecolor="#ffffff"
     bordercolor="#666666"
     borderopacity="1.0"
     inkscape:pageopacity="0.0"
     inkscape:pageshadow="2"
     inkscape:zoom="2.8"
     inkscape:cx="42.157776"
     inkscape:cy="30.146419"
     inkscape:document-units="px"
     inkscape:current-layer="svg4460"
     showgrid="false"
     fit-margin-top="0"
     fit-margin-left="0"
     fit-margin-right="0"
     fit-margin-bottom="0"
     inkscape:window-width="1280"
     inkscape:window-height="984"
     inkscape:window-x="0"
     inkscape:window-y="16"
     inkscape:window-maximized="1"
     units="px" />
  <metadata
     id="metadata4465">
    <rdf:RDF>
      <cc:Work
         rdf:about="">
        <dc:format>image/svg+xml</dc:format>
        <dc:type
           rdf:resource="http://purl.org/dc/dcmitype/StillImage" />
        <dc:title></dc:title>
      </cc:Work>
    </rdf:RDF>
  </metadata>
  <g
     id="normal"
     style="opacity:1">
    <rect
       ry="10.1399"
       y="0"
       x="0"
       height="64"
       width="64"
       id="rect5026"
       style="opacity:1;fill:url(#linearGradient5034);fill-opacity:1;stroke:none;stroke-width:1;stroke-linecap:round;stroke-linejoin:round;stroke-miterlimit:4;stroke-dasharray:none;stroke-opacity:1" />
    <path
       id="rect5008-9"
       d="M 53.6875,64 C 59.400625,64 64,59.400625 64,53.6875 l 0,-43.375 C 64,4.5993748 59.400625,-2.3151643e-7 53.6875,-2.3151643e-7 l -0.898438,0 C 58.406543,-2.3151643e-7 62.927734,4.5231438 62.927734,10.140625 l 0,42.648437 c 0,5.617482 -4.521191,10.138673 -10.138672,10.138673 l -42.648437,0 C 4.5231438,62.927735 -2.3151643e-7,58.406544 -2.3151643e-7,52.789062 l 0,0.898438 C -2.3151643e-7,59.400625 4.5993748,64 10.3125,64 l 43.375,0 z"
       style="opacity:1;fill:#353535;fill-opacity:1;stroke:none;stroke-width:1;stroke-linecap:round;stroke-linejoin:round;stroke-miterlimit:4;stroke-dasharray:none;stroke-opacity:1"
       inkscape:connector-curvature="0" />
    <path
       id="rect5008"
       d="M 10.3125,0 C 4.599375,0 0,4.599375 0,10.3125 l 0,43.375 C 0,59.400625 4.599375,64 10.3125,64 l 0.898438,0 C 5.5934566,64 1.0722656,59.476856 1.0722656,53.859375 l 0,-42.648437 c 0,-5.6174814 4.521191,-10.1386724 10.1386724,-10.1386724 l 42.648437,0 C 59.476856,1.0722656 64,5.5934566 64,11.210938 L 64,10.3125 C 64,4.599375 59.400625,0 53.6875,0 l -43.375,0 z"
       style="opacity:1;fill:#efefef;fill-opacity:1;stroke:none;stroke-width:1;stroke-linecap:round;stroke-linejoin:round;stroke-miterlimit:4;stroke-dasharray:none;stroke-opacity:1"
       inkscape:connector-curvature="0" />
  </g>
  <g
     id="pressed"
     style="opacity:1">
    <rect
       ry="10.1399"
       y="0"
       x="0"
       height="64"
       width="64"
       id="rect5026-9"
       style="opacity:1;fill:url(#linearGradient5805);fill-opacity:1;stroke:none;stroke-width:1;stroke-linecap:round;stroke-linejoin:round;stroke-miterlimit:4;stroke-dasharray:none;stroke-opacity:1" />
    <path
       id="rect5008-7"
       d="M 53.6875,64 C 59.400625,64 64,59.400625 64,53.6875 l 0,-43.375 C 64,4.599375 59.400625,0 53.6875,0 l -0.898438,0 c 5.617481,0 10.138672,4.523144 10.138672,10.140625 l 0,42.648437 c 0,5.617481 -4.521191,10.138672 -10.138672,10.138672 l -42.648437,0 C 4.523144,62.927734 0,58.406543 0,52.789062 L 0,53.6875 C 0,59.400625 4.599375,64 10.3125,64 l 43.375,0 z"
       style="opacity:1;fill:#efefef;fill-opacity:1;stroke:none;stroke-width:1;stroke-linecap:round;stroke-linejoin:round;stroke-miterlimit:4;stroke-dasharray:none;stroke-opacity:1"
       inkscape:connector-curvature="0" />
    <path
       id="rect5008-9-0"
       d="M 10.3125,-2.3151642e-7 C 4.5993748,-2.3151642e-7 -2.3151642e-7,4.5993748 -2.3151642e-7,10.3125 l 0,43.375 C -2.3151642e-7,59.400625 4.5993748,64 10.3125,64 l 0.898438,0 C 5.5934568,64 1.0722658,59.476856 1.0722658,53.859375 l 0,-42.648437 c 0,-5.6174822 4.521191,-10.1386732 10.1386722,-10.1386732 l 42.648437,0 C 59.476856,1.0722648 64,5.5934558 64,11.210938 L 64,10.3125 C 64,4.5993748 59.400625,-2.3151642e-7 53.6875,-2.3151642e-7 l -43.375,0 z"
       style="opacity:1;fill:#353535;fill-opacity:1;stroke:none;stroke-width:1;stroke-linecap:round;stroke-linejoin:round;stroke-miterlimit:4;stroke-dasharray:none;stroke-opacity:1"
       inkscape:connector-curvature="0" />
  </g>
</svg>
