<?xml version="1.0" encoding="utf-8"?>
<!-- Generated by IcoMoon.io -->
<!DOCTYPE svg PUBLIC "-//W3C//DTD SVG 1.1//EN" "http://www.w3.org/Graphics/SVG/1.1/DTD/svg11.dtd">
<svg version="1.1" xmlns="http://www.w3.org/2000/svg" xmlns:xlink="http://www.w3.org/1999/xlink" width="16" height="16" viewBox="0 0 16 16">
<path fill="#444444" d="M16 7.1c0-2.7-1.3-7.1-7.3-7.1s-8.5 7.4-7.5 9.9c0.8 1.9 2.5 0.1 3.1 1 1.8 2.5-2 3.8 0.1 4.7 2.5 1.1 11.6 0.4 11.6-8.5zM4.5 9c-0.9 0-1.5-0.7-1.5-1.5s0.6-1.5 1.5-1.5 1.5 0.7 1.5 1.5-0.7 1.5-1.5 1.5zM6 3.5c0-0.8 0.6-1.5 1.5-1.5s1.5 0.7 1.5 1.5-0.7 1.5-1.5 1.5-1.5-0.7-1.5-1.5zM8.5 14c-0.9 0-1.5-0.7-1.5-1.5s0.6-1.5 1.5-1.5 1.5 0.7 1.5 1.5-0.7 1.5-1.5 1.5zM11 4.5c0-0.8 0.6-1.5 1.5-1.5s1.5 0.7 1.5 1.5-0.7 1.5-1.5 1.5-1.5-0.7-1.5-1.5zM12.5 11c-0.8 0-1.5-0.7-1.5-1.5s0.6-1.5 1.5-1.5 1.5 0.7 1.5 1.5-0.7 1.5-1.5 1.5z"></path>
</svg>
