<?xml version="1.0" encoding="utf-8"?>
<!-- Generated by IcoMoon.io -->
<!DOCTYPE svg PUBLIC "-//W3C//DTD SVG 1.1//EN" "http://www.w3.org/Graphics/SVG/1.1/DTD/svg11.dtd">
<svg version="1.1" xmlns="http://www.w3.org/2000/svg" xmlns:xlink="http://www.w3.org/1999/xlink" width="16" height="16" viewBox="0 0 16 16">
<path fill="#FFFFFF" d="M 4.0527344 0.24023438 L 4.0527344 2.1777344 L 1.9316406 2.1777344 L 0.93164062 4.1777344 L -0.068359375 4.1777344 L -0.068359375 15.177734 L 13.931641 15.177734 L 15.931641 6.1777344 L 13.759766 6.1777344 L 13.759766 3.4746094 L 10.525391 0.24023438 L 4.0527344 0.24023438 z M 4.8613281 1.0488281 L 9.7148438 1.0488281 L 9.7148438 4.2851562 L 12.951172 4.2851562 L 12.951172 6.1777344 L 4.8613281 6.1777344 L 4.8613281 1.0488281 z M 10.525391 1.0488281 L 12.951172 3.4746094 L 10.525391 3.4746094 L 10.525391 1.0488281 z M 2.53125 3.1777344 L 4.0527344 3.1777344 L 4.0527344 6.1777344 L 2.9316406 6.1777344 L 0.93164062 12.078125 L 0.93164062 5.1777344 L 1.53125 5.1777344 L 2.53125 3.1777344 z M 3.6328125 7.1777344 L 14.832031 7.1777344 L 13.232422 14.177734 L 1.3320312 14.078125 L 3.6328125 7.1777344 z "/>
</svg>
