<?xml version="1.0" encoding="utf-8"?>
<!-- Generated by IcoMoon.io -->
<!DOCTYPE svg PUBLIC "-//W3C//DTD SVG 1.1//EN" "http://www.w3.org/Graphics/SVG/1.1/DTD/svg11.dtd">
<svg version="1.1" xmlns="http://www.w3.org/2000/svg" xmlns:xlink="http://www.w3.org/1999/xlink" width="16" height="16" viewBox="0 0 16 16">
  <path
     fill="#dddddd"
     d="M 9.8735488,10.133961 13.560108,6.0523834 14.302213,6.7226674 14.972497,5.9805624 9.0356558,0.61829343 8.3653726,1.3603984 9.1074778,2.0306824 5.420918,6.1122604 c 0,0 -2.4896355,-0.22741 -3.8302027,1.2568 -0.3351418,0.371053 0.9408011,1.793013 2.4992218,3.2006076 l -1.4746239,1.632631 c -0.4691985,0.519474 -0.789976,1.173004 -1.036543,1.893563 l -0.299231,1.077247 1.0413361,-0.406964 C 2.945677,14.521967 3.5632965,14.13655 4.0995234,13.542866 l 1.4746238,-1.632631 c 1.5584207,1.407596 3.1695056,2.458503 3.4376186,2.161661 1.3405672,-1.48421 0.861783,-3.937935 0.861783,-3.937935 z M 6.8380997,7.5270374 c 0,0 -0.5721376,-0.11251 -2.1257651,-0.03351 -1.4123886,0.07182 -2.3866964,0.404575 -2.3866964,0.404575 0,0 0.7444941,-0.675077 1.8672229,-0.873773 1.4052065,-0.21306 1.9031336,-0.167578 1.9031336,-0.167578 l 3.7535881,-4.155786 0.7421052,0.670284 z"
     id="path2" />
</svg>
