<?xml version="1.0" encoding="UTF-8" standalone="no"?>
<!-- Created with Inkscape (http://www.inkscape.org/) -->
<svg xmlns:dc="http://purl.org/dc/elements/1.1/" xmlns:cc="http://creativecommons.org/ns#" xmlns:rdf="http://www.w3.org/1999/02/22-rdf-syntax-ns#" xmlns:svg="http://www.w3.org/2000/svg" xmlns="http://www.w3.org/2000/svg" xmlns:xlink="http://www.w3.org/1999/xlink" xmlns:sodipodi="http://sodipodi.sourceforge.net/DTD/sodipodi-0.dtd" xmlns:inkscape="http://www.inkscape.org/namespaces/inkscape" width="378.30496" height="326.05325" id="svg2" sodipodi:version="0.32" inkscape:version="0.46" version="1.0" sodipodi:docbase="C:\Documents and Settings\KevinDuke\Desktop" sodipodi:docname="Ambox_warning_blue_construction.svg" inkscape:output_extension="org.inkscape.output.svg.inkscape">
  <sodipodi:namedview id="base" pagecolor="#ffffff" bordercolor="#666666" borderopacity="1.0" gridtolerance="10000" guidetolerance="10" objecttolerance="10" inkscape:pageopacity="0.0" inkscape:pageshadow="2" inkscape:zoom="0.64877047" inkscape:cx="-125.04673" inkscape:cy="39.346892" inkscape:document-units="px" inkscape:current-layer="layer1" width="400px" height="400px" showgrid="false" inkscape:window-width="1264" inkscape:window-height="764" inkscape:window-x="0" inkscape:window-y="0"/>
  <defs id="defs4">
    <linearGradient id="linearGradient3134">
      <stop offset="0" style="stop-color:#4c99f5;stop-opacity:1;" id="stop3136"/>
      <stop id="stop3165" style="stop-color:#1361ba;stop-opacity:1;" offset="0.5"/>
      <stop offset="1" style="stop-color:#194c9a;stop-opacity:1;" id="stop3138"/>
    </linearGradient>
    <linearGradient id="linearGradient3140" gradientUnits="userSpaceOnUse" inkscape:collect="always" x1="91.29969" x2="244.97258" xlink:href="#linearGradient3134" y1="4.3178039" y2="237.70302"/>
    <linearGradient id="linearGradient3148" gradientUnits="userSpaceOnUse" inkscape:collect="always" x1="91.29969" x2="244.97258" xlink:href="#linearGradient3134" y1="4.3178039" y2="237.70302"/>
    <filter inkscape:collect="always" id="filter3172">
      <feGaussianBlur inkscape:collect="always" stdDeviation="5.0924795" id="feGaussianBlur3174"/>
    </filter>
    <linearGradient inkscape:collect="always" xlink:href="#linearGradient3134" id="linearGradient2184" gradientUnits="userSpaceOnUse" x1="29.753853" y1="-13.269632" x2="202.58235" y2="183.58783" gradientTransform="matrix(1.2084425,0,0,1.2084425,89.669573,106.93911)"/>
  </defs>
  <metadata id="metadata7">
    <rdf:RDF>
      <cc:Work rdf:about="">
        <dc:format>image/svg+xml</dc:format>
        <dc:type rdf:resource="http://purl.org/dc/dcmitype/StillImage"/>
        <dc:title>3D effect warning triangle</dc:title>
        <dc:date>18/9/07</dc:date>
        <dc:creator>
          <cc:Agent>
            <dc:title>Tim O'Ryan</dc:title>
          </cc:Agent>
        </dc:creator>
        <cc:license rdf:resource="http://creativecommons.org/licenses/by-sa/2.5/"/>
      </cc:Work>
      <cc:License rdf:about="http://creativecommons.org/licenses/by-sa/2.5/">
        <cc:permits rdf:resource="http://web.resource.org/cc/Reproduction"/>
        <cc:permits rdf:resource="http://web.resource.org/cc/Distribution"/>
        <cc:requires rdf:resource="http://web.resource.org/cc/Notice"/>
        <cc:requires rdf:resource="http://web.resource.org/cc/Attribution"/>
        <cc:permits rdf:resource="http://web.resource.org/cc/DerivativeWorks"/>
        <cc:requires rdf:resource="http://web.resource.org/cc/ShareAlike"/>
      </cc:License>
    </rdf:RDF>
  </metadata>
  <g inkscape:label="Layer 1" id="layer1" inkscape:groupmode="layer" transform="translate(-15.90328,-38.352144)">
    <path style="opacity:1;fill:#777777;fill-opacity:0.79729728;stroke:none;stroke-width:20.6877861;stroke-linecap:round;stroke-linejoin:round;stroke-miterlimit:4;stroke-dasharray:none;stroke-opacity:1;filter:url(#filter3172)" d="M 213.05399,47.37801 C 208.83955,47.5955 205.01929,49.92458 202.89552,53.57127 L 33.940149,345.10803 C 31.700749,348.97294 31.693669,353.73905 33.921559,357.61061 C 36.149459,361.48217 40.273789,363.87084 44.740599,363.87665 L 381.66948,364.40534 C 386.13811,364.41875 390.27406,362.04591 392.51793,358.18147 C 394.7618,354.31704 394.77229,349.54876 392.54546,345.67448 L 224.53419,53.60904 C 222.18314,49.53899 217.74782,47.13166 213.05399,47.37801 L 213.05399,47.37801 z M 213.65821,84.83972 L 360.06857,339.36792 L 66.417039,338.91476 L 213.65821,84.83972 z" id="path3152"/>
    <path style="opacity:1;fill:url(#linearGradient2184);fill-opacity:1;stroke:#001387;stroke-width:6.25;stroke-linecap:round;stroke-linejoin:round;stroke-miterlimit:4;stroke-dasharray:none;stroke-opacity:1" d="M 199.82666,41.494396 C 195.61222,41.711894 191.79197,44.040971 189.66819,47.687664 L 20.712823,339.22442 C 18.473424,343.08933 18.466339,347.85544 20.694238,351.727 C 22.922136,355.59856 27.04646,357.98723 31.513278,357.99304 L 368.44215,358.52173 C 372.91078,358.53514 377.04674,356.1623 379.2906,352.29786 C 381.53447,348.43343 381.54497,343.66515 379.31813,339.79087 L 211.30686,47.725427 C 208.95581,43.655381 204.52049,41.248051 199.82666,41.494396 L 199.82666,41.494396 z M 200.43088,78.956113 L 346.84124,333.48431 L 53.189715,333.03115 L 200.43088,78.956113 z" id="path2178"/>
    <path sodipodi:arg2="1.5723975" style="opacity:1;fill:url(#linearGradient3140);fill-opacity:1;fill-rule:nonzero;stroke:url(#linearGradient3148);stroke-width:20.6877861;stroke-linecap:round;stroke-linejoin:round;stroke-miterlimit:4;stroke-dasharray:none;stroke-opacity:1" id="path2160" sodipodi:cx="91.428574" sodipodi:cy="117.14286" sodipodi:arg1="0.52519998" sodipodi:type="star" d="M 230.71429,197.85715 L -48.114905,197.41068 L 91.686339,-43.839248 L 230.71429,197.85715 z" sodipodi:r2="80.491158" sodipodi:sides="3" inkscape:randomized="0" transform="matrix(1.2084425,0,0,1.2084425,89.669573,106.93911)" inkscape:rounded="0" sodipodi:r1="160.98232" inkscape:flatsided="true"/>
    <path sodipodi:nodetypes="cccsccscccc" d="M 199.89464,117.765 C 197.29017,117.9016 194.92932,119.3644 193.61684,121.65473 L 89.204984,304.75655 C 87.82107,307.18391 87.81669,310.17731 89.193499,312.60887 C 90.570306,315.04044 93.119077,316.54066 95.879504,316.54431 L 304.09647,316.87636 C 306.85801,316.88477 309.41397,315.39449 310.80064,312.96739 C 312.18732,310.54032 312.1938,307.54558 310.81766,305.1123 L 206.98922,121.67846 C 205.53631,119.12222 202.79534,117.61029 199.89464,117.765 L 199.89464,117.765 z" style="opacity:1;fill:#ffffff;fill-opacity:1;stroke:none;stroke-width:20.6877861;stroke-linecap:round;stroke-linejoin:round;stroke-miterlimit:4;stroke-opacity:1" id="path19491"/>
    <g id="g2689" transform="matrix(0.4429717,0,0,0.4429717,130.45212,176.47068)">
      <path id="path633" style="font-size:12px;fill-rule:evenodd" d="M 385.98026,297.1542 L 140.36506,297.47 C 138.14026,297.2692 136.52876,296.7617 137.37106,294.1072 L 227.62156,178.4191 C 230.74276,173.9958 235.45166,171.6041 240.18906,171.7401 L 285.54036,171.6433 C 292.89546,171.6399 295.73166,173.769 299.77886,178.8507 L 388.15426,292.9709 C 388.96306,294.9787 388.23836,296.9865 385.98026,297.1542 z"/>
      <rect id="rect613" style="font-size:12px;fill:#000002;fill-rule:evenodd" transform="matrix(0.8854492,0.4647361,-0.4080531,0.9129582,0,0)" y="-14.842998" x="123.87642" ry="11.816919" rx="11.204546" height="124.68408" width="62.141693"/>
      <rect id="rect615" style="font-size:12px;fill-rule:evenodd" y="46.624874" x="62.235527" ry="8" rx="9.4117651" height="32.5" width="100.00001"/>
      <rect id="rect616" style="font-size:12px;fill-rule:evenodd" transform="matrix(0.4686899,-0.8833628,0.7446349,0.6674719,0,0)" y="81.759407" x="-81.341789" ry="6.8044353" rx="8.770999" height="27.643017" width="93.191841"/>
      <rect id="rect617" style="font-size:12px;fill-rule:evenodd" transform="matrix(0.8845854,0.4663782,-0.4366812,0.8996163,0,0)" y="83.646034" x="80.548698" ry="3.8168414" rx="27.532589" height="15.505919" width="292.53378"/>
      <rect id="rect618" style="font-size:12px;fill-rule:evenodd" transform="matrix(-5.7205843e-2,-0.9983624,0.9970356,-7.6942184e-2,0,0)" y="144.00377" x="-203.17215" ry="6.6537714" rx="12.701341" height="27.030947" width="134.95171"/>
      <ellipse sodipodi:ry="32.5" sodipodi:rx="31.25" sodipodi:cy="467.36218" sodipodi:cx="418.75" id="path619" style="font-size:12px;fill-rule:evenodd;stroke-width:1" transform="matrix(0.957573,0,0,0.972804,-219.55633,-423.0267)" ry="32.5" rx="31.25" cy="467.36218" cx="418.75"/>
      <rect id="rect621" style="font-size:12px;fill-rule:evenodd" transform="matrix(-0.2340079,-0.9722347,0.9856452,-0.16883,0,0)" y="45.608078" x="-250.27161" ry="7.6888905" rx="7.3474178" height="31.236115" width="78.066315"/>
      <rect id="rect622" style="font-size:12px;fill-rule:evenodd" transform="matrix(-7.5698648e-3,-0.9999713,0.9970336,7.6967061e-2,0,0)" y="100.42473" x="-287.73053" ry="7.6912837" rx="7.3637767" height="31.245834" width="78.240143"/>
      <rect id="rect623" style="font-size:12px;fill-rule:evenodd" transform="matrix(0.4947081,-0.8690592,0.8178671,0.5754071,0,0)" y="135.70329" x="-232.42075" ry="7.8654013" rx="14.748785" height="31.953188" width="156.70583"/>
    </g>
  </g>
</svg>