<?xml version="1.0" encoding="utf-8"?>
<!-- Generated by IcoMoon.io -->
<!DOCTYPE svg PUBLIC "-//W3C//DTD SVG 1.1//EN" "http://www.w3.org/Graphics/SVG/1.1/DTD/svg11.dtd">
<svg version="1.1" xmlns="http://www.w3.org/2000/svg" xmlns:xlink="http://www.w3.org/1999/xlink" width="16" height="16" viewBox="0 0 16 16">
<path fill="#444444" d="M11 6.6v0-3.8l-4-1.8-4 1.8v4.2l-3 1.3v4.4l4 1.8 3.5-1.5 3.5 1.6 4-1.8v-4.5l-4-1.7zM7 2.1l2.8 1.2-2.7 1.1-2.6-1.2 2.5-1.1zM7 5v2.9l-3-1.3v-3l3 1.4zM4 13.5l-3-1.3v-3l3 1.4v2.9zM4 10l-2.6-1.2 2.6-1.1 2.8 1.2-2.8 1.1zM11 13.5l-3-1.3v-3l3 1.4v2.9zM11 10l-2.6-1.2 2.6-1.1 2.8 1.2-2.8 1.1z"></path>
</svg>
